<svg width="340" height="39" viewBox="0 0 340 39" fill="none" xmlns="http://www.w3.org/2000/svg">
<path d="M57.1247 1.43801H60.2832V38.333H57.1247V8.43488L53.0496 16.4891H49.5098L45.4348 8.43488V38.333H42.2763V1.43801H45.4348L51.2795 12.9909L57.1247 1.43801ZM75.5722 1.43801L84.7411 38.333H81.4864L76.5509 18.4735H71.3382L66.4027 38.333H63.1481L72.317 1.43801H75.5722ZM72.1236 15.3153H75.7664L73.945 7.98634L72.1236 15.3153ZM100.997 1.43801H104.155V38.333H100.997V16.4896L90.7634 5.96819V38.333H87.6049V1.43801H90.7634L100.997 11.9594V1.43801ZM139.273 1.43801H142.432V38.333H139.273V16.4891H129.96V32.3766H126.801V7.39444H129.96V13.3303H139.273V1.43801ZM111.161 19.8855C111.161 28.6628 118.302 35.803 127.078 35.803C129.514 35.803 132.914 35.4795 135.045 34.511V37.9554C132.855 38.765 129.162 38.9616 126.798 38.9616C117.256 38.9616 108.002 32.1476 108.002 19.8858C108.002 6.39701 118.277 0.81006 127.327 0.81006C129.692 0.81006 132.855 1.00652 135.045 1.81613V5.26054C132.914 4.2921 129.514 3.96848 127.078 3.96848C117.784 3.96848 111.161 11.1077 111.161 19.8855ZM161.795 4.5978L150.902 4.59785V13.3317H159.285V16.4902H150.902V35.1756H161.795V38.3341H147.744V1.43912H161.795V4.5978ZM166.958 8.26622C166.958 16.1638 177.82 21.9664 177.82 29.9826C177.82 36.9884 172.348 38.9607 169.415 38.9607C166.645 38.9607 164.721 38.4715 163.556 37.9136V34.2196C164.23 34.7217 166.453 35.8021 169.16 35.8021C171.868 35.8021 174.662 33.6811 174.662 29.9828C174.662 23.6811 163.799 17.1491 163.799 8.26637C163.799 3.73883 167.22 0.810428 171.507 0.810428C172.87 0.810428 174.284 1.10857 176.369 1.69665V4.97872C174.219 4.27007 172.674 3.9689 171.507 3.9689C170.44 3.9689 166.958 4.27887 166.958 8.26622ZM178.788 1.43801H193.472V4.59649H187.709V38.3343H184.551V4.59649H178.788V1.43801ZM210.18 4.5978L199.287 4.59785V13.3317H207.67V16.4902H199.287V35.1756H210.18V38.3341H196.129V1.43912H210.18V4.5978ZM225.74 26.6209C226.44 31.0881 227.163 35.7024 229.649 38.333H225.75C223.87 35.096 223.214 30.905 222.62 27.1095C221.589 20.5269 220.751 16.4922 216.68 16.4891V38.333H213.522V1.43801H219.111C223.081 1.43801 226.312 4.8139 226.312 8.96353C226.312 11.9454 224.644 14.5278 222.232 15.7448C222.754 16.3453 223.211 17.0561 223.602 17.8783C224.75 20.2969 225.231 23.3689 225.74 26.6209ZM219.112 13.3303C221.34 13.3303 223.154 11.3713 223.154 8.96327C223.154 6.55524 221.34 4.59622 219.112 4.59622H216.681V13.3301L219.112 13.3303ZM262.324 3.96795C253.031 3.96795 246.407 11.1077 246.407 19.885C246.407 28.6623 253.548 35.8025 262.324 35.8025C263.246 35.8025 264.305 35.7562 265.381 35.6462V15.3147H268.539V38.3327C266.59 38.7751 263.854 38.9613 262.044 38.9613C252.502 38.9613 243.248 32.1473 243.248 19.8855C243.248 6.39671 253.523 0.809753 262.573 0.809753C264.361 0.809753 266.604 0.922321 268.539 1.32684V4.66293C266.56 4.15368 264.167 3.96795 262.324 3.96795ZM287.396 4.5978L276.503 4.59785V13.3317H284.886V16.4902H276.503V35.1756H287.396V38.3341H273.345V1.43912H287.396V4.5978ZM304.13 1.43801H307.289V38.333H304.13V16.4896L293.897 5.96819V38.333H290.738V1.43801H293.897L304.13 11.9594V1.43801ZM309.976 1.43801H324.66V4.59649H318.897V38.3343H315.739V4.59649H309.976V1.43801ZM329.138 8.26622C329.138 16.1638 340 21.9664 340 29.9826C340 36.9884 334.527 38.9607 331.594 38.9607C328.825 38.9607 326.901 38.4715 325.735 37.9136V34.2196C326.409 34.7217 328.633 35.8021 331.34 35.8021C334.047 35.8021 336.841 33.6811 336.841 29.9828C336.841 23.6811 325.979 17.1491 325.979 8.26637C325.979 3.73883 329.399 0.810428 333.687 0.810428C335.05 0.810428 336.464 1.10857 338.549 1.69665V4.97872C336.399 4.27007 334.854 3.9689 333.687 3.9689C332.619 3.9689 329.138 4.27887 329.138 8.26622Z" fill="#FFD460"/>
<path d="M6.87662 2.97527C10.0039 9.9855 11.5572 21.5359 12.3 29.6664C9.18956 23.3338 4.9108 18.5931 3.11855 16.7587L7.00477 12.0477L1.86815 8.35038L6.87662 2.97527ZM7.19762 0.809753L0 8.53357L5.20381 12.2785L1.4389 16.8429C1.4389 16.8429 11.8478 26.5552 14.1738 38.9609C14.1738 38.9609 13.2873 12.0452 7.19762 0.809753Z" fill="#FFD460"/>
<path d="M25.0897 2.97527L30.0981 8.351L24.9615 12.0477L28.8471 16.7587C27.0555 18.5931 22.7767 23.3345 19.6662 29.6664C20.4084 21.5366 21.9612 9.98488 25.0897 2.97527ZM24.768 0.809753C18.6784 12.0446 17.7925 38.9616 17.7925 38.9616C20.1179 26.5558 30.5268 16.8435 30.5268 16.8435L26.7618 12.2791L31.965 8.53419L24.768 0.809753Z" fill="#FFD460"/>
<path d="M12.0027 3.19063L13.1778 3.74516L12.0369 4.13197C12.0251 3.82933 12.0139 3.50813 12.0027 3.19063ZM10.7106 1.21141C10.7106 2.36812 10.8599 5.83765 10.8599 5.83765L16.4824 3.93269L10.7106 1.21141Z" fill="#FFD460"/>
<path d="M19.963 3.19062C19.9518 3.50811 19.9406 3.8287 19.9288 4.13134L18.7885 3.74453L19.963 3.19062ZM21.2557 1.21139L15.4852 3.93268L21.1064 5.83764C21.1064 5.83764 21.2557 2.36811 21.2557 1.21139Z" fill="#FFD460"/>
<path fill-rule="evenodd" clip-rule="evenodd" d="M26.6417 7.3978L26.6608 7.44926C26.6735 7.48369 26.6808 7.51802 26.6826 7.55229V7.57398L26.9469 7.69881C27.085 7.77283 27.2041 7.83258 27.304 7.8777C27.4039 7.92113 27.4902 7.95182 27.5629 7.96994C27.6701 8.00063 27.78 8.00507 27.8927 7.98349C27.9472 7.97438 28.008 7.95638 28.0753 7.92927C28.1407 7.90036 28.2024 7.86691 28.2606 7.82884C28.4096 7.73129 28.5213 7.62105 28.5958 7.49806C28.6485 7.41315 28.6721 7.33636 28.6666 7.26761C28.663 7.18627 28.6212 7.12027 28.5412 7.06968C28.4722 7.02635 28.3777 6.99387 28.2578 6.97213L28.0916 6.94767C28.088 6.94767 28.0289 6.94225 27.9144 6.93146C27.7255 6.92056 27.4675 6.92967 27.1404 6.95857C26.9515 6.97847 26.8071 6.99382 26.7072 7.00466C26.5291 7.02278 26.3746 7.03536 26.2439 7.04257C26.1748 7.04626 26.1012 7.04436 26.0231 7.03715C25.9995 7.03357 25.9777 7.02993 25.9577 7.02636C25.945 7.03536 25.9341 7.04078 25.925 7.04257C25.9214 7.04257 25.9186 7.04354 25.9168 7.04533C25.9168 7.07245 25.9204 7.09598 25.9277 7.11588C25.9441 7.15742 25.9786 7.19088 26.0313 7.2162L26.113 7.24331C26.1385 7.24873 26.1657 7.25145 26.1948 7.25145C26.2093 7.25145 26.2402 7.24966 26.2874 7.24591C26.331 7.24049 26.3665 7.2387 26.3937 7.24049C26.4409 7.24407 26.48 7.25318 26.5109 7.26761L26.5681 7.30014C26.579 7.30925 26.5935 7.3246 26.6117 7.34634L26.6417 7.3978ZM27.7264 6.49229C27.6592 6.48676 27.5838 6.46962 27.5002 6.44072C27.3749 6.3937 27.2731 6.36036 27.195 6.3404C27.1205 6.32782 27.0597 6.32408 27.0124 6.32961L26.9688 6.3404L26.9279 6.35938C26.897 6.38107 26.8698 6.40363 26.8461 6.42716C26.7934 6.48139 26.7416 6.55194 26.6907 6.63864C26.6163 6.74888 26.5626 6.82567 26.53 6.8691C26.6971 6.85457 26.8961 6.83478 27.1268 6.80945C27.4412 6.78055 27.7082 6.77323 27.928 6.78776C28.0316 6.79676 28.0924 6.80311 28.1107 6.80674L28.2905 6.83385C28.434 6.86097 28.5458 6.90261 28.6257 6.95863C28.6766 6.99116 28.7193 7.03541 28.7538 7.09143C28.7847 7.14207 28.8001 7.20085 28.8001 7.26766C28.8001 7.36711 28.7684 7.46743 28.7048 7.56867C28.6158 7.70781 28.4867 7.82889 28.3178 7.93192C28.1815 8.01505 28.0434 8.06749 27.9035 8.08918C27.8308 8.09818 27.7645 8.09997 27.7046 8.0946L27.5329 8.0567C27.4493 8.02958 27.3603 7.99249 27.2659 7.94548C27.1677 7.89304 27.0524 7.82445 26.9197 7.73948L26.6826 7.5768V7.58222C26.6808 7.62376 26.6726 7.67712 26.6581 7.74213C26.6417 7.80905 26.6353 7.85693 26.639 7.88583C26.6408 7.92195 26.6571 7.9554 26.688 7.98615L26.737 8.02682C26.7443 8.0304 26.7616 8.03859 26.7888 8.05127C26.8233 8.06206 26.866 8.06662 26.9169 8.06483C26.9333 8.06483 26.9796 8.06114 27.0559 8.05393C27.1813 8.04314 27.2776 8.04493 27.3448 8.05935C27.4265 8.08289 27.5056 8.12269 27.5819 8.1787C27.6255 8.2094 27.6837 8.26004 27.7564 8.33048C27.8636 8.44262 27.9398 8.55373 27.9852 8.66397C28.0252 8.74889 28.0634 8.84655 28.0997 8.95679C28.1343 9.06524 28.1561 9.14755 28.1652 9.20357C28.167 9.22889 28.1706 9.26403 28.176 9.30925L28.1652 9.40138C28.1434 9.51894 28.1315 9.59117 28.1297 9.61829V9.64274H28.1079C28.0789 9.64453 28.0044 9.6563 27.8845 9.67799L27.7918 9.68601C27.7718 9.68601 27.7364 9.68244 27.6855 9.67522C27.6255 9.66622 27.5429 9.64453 27.4375 9.61021C27.3194 9.57219 27.2204 9.53331 27.1404 9.49362C27.026 9.44482 26.9143 9.36885 26.8053 9.26582C26.7235 9.17369 26.6735 9.11491 26.6554 9.08959C26.5991 9.01194 26.56 8.93244 26.5382 8.8511C26.5255 8.78598 26.5246 8.69108 26.5355 8.56642C26.5464 8.43807 26.5446 8.35038 26.53 8.30331C26.5191 8.27799 26.51 8.26086 26.5028 8.25185L26.4619 8.20039C26.431 8.17328 26.3974 8.15875 26.361 8.15696C26.3302 8.15517 26.2811 8.16238 26.2138 8.17865L26.1103 8.19486L26.2411 8.38742C26.3265 8.5194 26.3956 8.63501 26.4483 8.73446C26.4973 8.83022 26.5336 8.9197 26.5573 9.00282C26.6009 9.1167 26.6118 9.23871 26.59 9.36885C26.5754 9.44118 26.5564 9.50897 26.5328 9.5722C26.5019 9.65174 26.4674 9.72132 26.4292 9.78096C26.3293 9.94543 26.2067 10.073 26.0613 10.1633C25.9596 10.2265 25.8587 10.2572 25.7588 10.2554C25.6897 10.2536 25.6307 10.2374 25.5816 10.2067C25.5289 10.1723 25.4853 10.129 25.4508 10.0766C25.3927 9.98984 25.3518 9.87868 25.3282 9.74311L25.2982 9.56411C25.2964 9.54069 25.291 9.48012 25.2819 9.38246C25.2692 9.18725 25.2764 8.92252 25.3037 8.58805C25.3291 8.35857 25.3491 8.16238 25.3636 7.99971C25.32 8.0304 25.2428 8.08283 25.132 8.15696C25.0375 8.21297 24.9666 8.26444 24.9194 8.3115C24.8903 8.3404 24.8677 8.36849 24.8513 8.39561L24.8322 8.43628L24.8212 8.47955C24.814 8.53198 24.8185 8.59169 24.8349 8.65855C24.844 8.69466 24.8775 8.7959 24.9357 8.96221C24.9648 9.05987 24.9821 9.13579 24.9875 9.19001L24.9902 9.2361L24.9793 9.33913L24.9657 9.38522L24.9494 9.41499C24.9385 9.4349 24.9312 9.44487 24.9276 9.44487C24.9258 9.44129 24.9258 9.42855 24.9276 9.40697L24.9302 9.3336C24.9302 9.31018 24.9284 9.29028 24.9248 9.27395L24.9112 9.20075C24.8985 9.14831 24.873 9.08053 24.8349 8.9974C24.764 8.83652 24.7213 8.73441 24.7068 8.69103C24.685 8.60248 24.6768 8.52477 24.6822 8.45791L24.6986 8.39013L24.7286 8.32235C24.7522 8.2807 24.7813 8.2428 24.8158 8.20837C24.8667 8.15783 24.9439 8.09812 25.0475 8.02948C25.1819 7.94271 25.2664 7.8848 25.3009 7.8559C25.3173 7.83969 25.3372 7.827 25.3609 7.818C25.3663 7.81621 25.3727 7.81442 25.38 7.81257C25.3818 7.77456 25.3836 7.73845 25.3855 7.70412C25.3891 7.64632 25.3927 7.59833 25.3963 7.56042C25.3691 7.58032 25.3355 7.61188 25.2955 7.65532C25.27 7.68422 25.2328 7.72852 25.1837 7.78812C25.0838 7.9021 24.9939 7.97704 24.9139 8.01315C24.8558 8.03848 24.794 8.04482 24.7286 8.03213L24.6469 8.00236L24.5841 7.96175C24.5187 7.91294 24.4651 7.83974 24.4233 7.74208L24.3307 7.51439L24.3198 7.49541L24.2653 7.42209C24.2163 7.35344 24.1626 7.28832 24.1045 7.22688L23.8946 7.03454L23.9737 7.05613L24.02 7.08058C24.0382 7.08779 24.0591 7.10048 24.0827 7.11848C24.1008 7.12759 24.1263 7.1456 24.159 7.17271C24.2352 7.23783 24.2988 7.29927 24.3497 7.35708L24.4043 7.42209L24.4124 7.43023L24.456 7.50614C24.476 7.54584 24.505 7.60738 24.5432 7.69051C24.5777 7.76643 24.6177 7.81886 24.6632 7.84776C24.6959 7.87119 24.7276 7.88567 24.7585 7.89109C24.7894 7.89651 24.8221 7.89207 24.8567 7.87754C24.9076 7.85584 24.9775 7.79262 25.0665 7.68775L25.1837 7.55218C25.2 7.53418 25.2155 7.51786 25.23 7.50338L25.2083 7.50891C25.1101 7.53781 25.0283 7.55316 24.963 7.555C24.9321 7.555 24.9085 7.55321 24.8921 7.54958L24.8212 7.5306C24.7722 7.51618 24.7295 7.4927 24.6931 7.46016C24.6223 7.40051 24.5786 7.31549 24.5623 7.20525C24.5424 7.07879 24.5533 6.91335 24.5951 6.70919C24.5914 6.7074 24.5878 6.7055 24.5842 6.70366C24.5133 6.67112 24.4397 6.63322 24.3634 6.58978C24.2907 6.54467 24.239 6.51387 24.208 6.49766L24.0173 6.39999C23.981 6.38557 23.9546 6.37201 23.9382 6.35933L23.9246 6.34311L23.941 6.33498C23.961 6.32777 23.9927 6.32408 24.0364 6.32408L24.1318 6.3404C24.1681 6.34761 24.2126 6.36117 24.2653 6.38107C24.3307 6.40639 24.4542 6.46599 24.636 6.56007L24.6687 6.44072C24.705 6.34138 24.7359 6.29257 24.7613 6.29436H24.7667L24.764 6.28894C24.7622 6.26725 24.8122 6.23651 24.9139 6.1967C24.9629 6.18049 25.002 6.16872 25.0311 6.16146C24.9366 5.98436 24.8775 5.86235 24.8539 5.79543C24.843 5.76832 24.8285 5.72407 24.8103 5.66263C24.8067 5.64273 24.8021 5.61117 24.7966 5.56774C24.7966 5.52431 24.8003 5.49361 24.8075 5.47561L24.8158 5.45923L24.8294 5.47279C24.8421 5.48911 24.8557 5.51525 24.8703 5.55136C24.8794 5.56405 24.893 5.58938 24.9112 5.62728L24.9711 5.74115C24.9766 5.75384 25.0065 5.80536 25.0611 5.8958C25.1065 5.97346 25.1446 6.04579 25.1755 6.11271C25.1792 6.11629 25.181 6.11992 25.181 6.1235C25.3935 6.08381 25.5608 6.07285 25.6824 6.09096C25.7951 6.11086 25.8814 6.15517 25.9413 6.22376C25.9759 6.2672 25.9986 6.31052 26.0095 6.3539L26.0286 6.42169C26.0322 6.45601 26.0331 6.48047 26.0313 6.49489C26.0295 6.56002 26.015 6.64135 25.9877 6.73891L25.9822 6.7606C25.9949 6.74427 26.0113 6.72714 26.0313 6.70914L26.1675 6.59515C26.2693 6.51024 26.332 6.4398 26.3556 6.38378C26.3701 6.35488 26.3746 6.32224 26.3692 6.28612C26.3619 6.25001 26.3474 6.21932 26.3256 6.19399C26.2965 6.14877 26.2429 6.1081 26.1648 6.07198C26.0812 6.03397 26.0204 6.00507 25.9821 5.98511L25.9168 5.94998L25.8323 5.87948C25.7614 5.81805 25.6997 5.75471 25.647 5.68969C25.6198 5.65716 25.6016 5.63189 25.5925 5.61378L25.5299 5.50533L25.5108 5.42941L25.5407 5.45923C25.568 5.49893 25.6225 5.55868 25.7042 5.63823C25.7569 5.68877 25.8223 5.74213 25.9004 5.79814L25.9741 5.85237L25.9768 5.85514L26.0313 5.87948C26.1331 5.91739 26.1975 5.94271 26.2248 5.9554C26.3193 5.99694 26.392 6.05029 26.4428 6.11531C26.4774 6.16232 26.5001 6.21118 26.511 6.26177C26.5255 6.32142 26.5191 6.38199 26.4919 6.44343C26.4682 6.49408 26.4346 6.54277 26.391 6.58978C26.3674 6.6169 26.3256 6.65757 26.2656 6.71179L26.1349 6.82024C26.1021 6.84915 26.074 6.87805 26.0503 6.907C26.0903 6.90158 26.1521 6.89621 26.2356 6.89079C26.2702 6.889 26.3065 6.88721 26.3447 6.88537C26.3465 6.87805 26.3483 6.87181 26.3501 6.86628C26.3538 6.85907 26.3656 6.83917 26.3855 6.80663C26.4201 6.7651 26.4791 6.68105 26.5627 6.55448C26.6317 6.44972 26.6917 6.37201 26.7426 6.32137C26.7807 6.28704 26.8189 6.25803 26.8571 6.23461L26.9252 6.20473L26.9933 6.19117C27.0533 6.18396 27.1323 6.19215 27.2304 6.21552C27.274 6.23005 27.3767 6.27251 27.5384 6.34306C27.6165 6.37917 27.6846 6.4045 27.7428 6.41887L27.8463 6.43795H27.9172L27.9472 6.43519C27.9689 6.4334 27.9817 6.4334 27.9853 6.43519C27.9853 6.43877 27.9744 6.44598 27.9526 6.45688L27.9226 6.47309L27.879 6.48665C27.8608 6.49218 27.839 6.49478 27.8136 6.49478L27.7727 6.49766L27.7264 6.49229ZM26.3828 7.38424C26.3665 7.38424 26.3374 7.38603 26.2956 7.38967C26.2519 7.39325 26.2174 7.39509 26.192 7.39509C26.1593 7.39688 26.1203 7.3933 26.0749 7.3843C26.0168 7.36619 25.9813 7.35361 25.9686 7.3464C25.9341 7.33371 25.8986 7.31115 25.8623 7.27861C25.826 7.24418 25.8005 7.2053 25.786 7.16203C25.7624 7.09327 25.7615 7.00933 25.7833 6.90988C25.7924 6.86644 25.8124 6.79422 25.8433 6.69298C25.8687 6.60264 25.8814 6.53485 25.8814 6.48963L25.8787 6.4462L25.8678 6.4001C25.8587 6.37299 25.8433 6.34767 25.8215 6.32419C25.7869 6.27907 25.7306 6.25098 25.6524 6.24019C25.5434 6.22387 25.3845 6.23743 25.1755 6.28086C25.1029 6.29707 25.0247 6.31063 24.9411 6.32153C24.8667 6.33053 24.814 6.32695 24.7831 6.31063C24.7977 6.33953 24.8004 6.39295 24.7912 6.47065C24.7894 6.49597 24.7767 6.57368 24.7531 6.70377C24.7059 6.90809 24.6923 7.06621 24.7122 7.17824C24.7231 7.256 24.7513 7.31202 24.7967 7.34645C24.8458 7.38978 24.9012 7.40968 24.963 7.4061C25.012 7.4061 25.0811 7.39254 25.1701 7.36543C25.2173 7.35274 25.29 7.33289 25.3881 7.30578C25.4916 7.28767 25.5762 7.28946 25.6415 7.3112C25.6888 7.32742 25.7279 7.35366 25.7587 7.38978C25.7842 7.41689 25.8069 7.45213 25.8269 7.49557L25.8623 7.60125C25.8695 7.63737 25.8731 7.67625 25.8731 7.71784C25.8713 7.76664 25.8677 7.82987 25.8623 7.90763C25.8623 7.95643 25.8777 7.99255 25.9086 8.01608C25.945 8.04319 25.9876 8.05854 26.0367 8.06217C26.0658 8.06396 26.1175 8.05762 26.1921 8.04319C26.2721 8.02687 26.3338 8.02053 26.3774 8.02422C26.4465 8.02964 26.5073 8.06033 26.56 8.11634C26.5764 8.13088 26.5954 8.15425 26.6172 8.18689C26.6354 8.214 26.6481 8.24199 26.6554 8.27089C26.67 8.32153 26.6753 8.37755 26.6718 8.43899C26.67 8.47342 26.6654 8.52211 26.6581 8.58545C26.6454 8.6939 26.6445 8.77611 26.6554 8.83212C26.67 8.88814 26.6945 8.94426 26.729 9.00033V9.00299C26.7326 8.99578 26.7372 8.98856 26.7426 8.9813C27.0569 8.6721 27.2885 8.46057 27.4375 8.34675L27.5411 8.2871L27.5329 8.28168C27.462 8.22566 27.3876 8.18944 27.3094 8.17323C27.2604 8.16412 27.1777 8.16591 27.0614 8.17865L26.9142 8.18944C26.8416 8.18944 26.7852 8.18402 26.7452 8.17323C26.7089 8.1587 26.6807 8.14514 26.6607 8.13256L26.5899 8.07557C26.5354 8.02313 26.5063 7.96169 26.5027 7.8912C26.499 7.85509 26.5063 7.79365 26.5244 7.70683C26.5371 7.64182 26.5426 7.59117 26.5408 7.55506C26.5372 7.50441 26.5217 7.46195 26.4944 7.42762C26.471 7.39872 26.4337 7.38424 26.3828 7.38424ZM26.4973 9.17646L26.4673 9.0192C26.4455 8.93065 26.4146 8.84476 26.3746 8.76163C26.351 8.70919 26.292 8.59174 26.1975 8.40916L26.0967 8.19768H26.0231C26.0158 8.19768 25.9813 8.19134 25.9196 8.1787L25.8678 8.15701L25.8187 8.12714C25.7806 8.09644 25.7543 8.06212 25.7398 8.02422C25.7325 7.9971 25.7271 7.9772 25.7233 7.96446L25.7179 7.90758C25.7234 7.81534 25.7261 7.75032 25.7261 7.71236C25.7261 7.68525 25.7233 7.65814 25.7179 7.63103L25.6906 7.54969C25.6652 7.49904 25.6316 7.46558 25.5898 7.44926C25.5716 7.44384 25.5499 7.44124 25.5244 7.44124C25.528 7.45745 25.5307 7.47637 25.5325 7.49812C25.5416 7.59215 25.5434 7.66356 25.538 7.71236C25.5271 7.92748 25.4999 8.22572 25.4563 8.60709C25.4254 8.92512 25.4163 9.18269 25.429 9.3798C25.4326 9.45745 25.4371 9.51623 25.4426 9.55604L25.4699 9.71871C25.4916 9.83974 25.5253 9.93464 25.5707 10.0034C25.6216 10.0829 25.6879 10.1226 25.7697 10.1226C25.8405 10.1244 25.9168 10.1001 25.9986 10.0494C26.1222 9.97531 26.2339 9.86322 26.3338 9.71318C26.4083 9.59573 26.4591 9.47285 26.4864 9.3445C26.4955 9.27759 26.4991 9.22157 26.4973 9.17646ZM27.5601 8.30066L27.5547 8.29789L27.492 8.40097C27.3775 8.55107 27.2277 8.71998 27.0423 8.90798C26.9243 9.02734 26.8498 9.09875 26.8189 9.12223L26.887 9.19543C26.9688 9.27856 27.0578 9.34721 27.154 9.40144C27.1758 9.37254 27.234 9.31207 27.3284 9.21978C27.4938 9.05711 27.6409 8.93065 27.77 8.8402L27.8845 8.78055L27.8245 8.89443C27.7318 9.02278 27.5565 9.21534 27.2985 9.47193C27.3385 9.49004 27.3957 9.51358 27.4702 9.54248C27.5465 9.57317 27.6237 9.59757 27.7019 9.61568C27.7236 9.61926 27.7554 9.62468 27.7972 9.6319L27.8817 9.62924C27.9852 9.61834 28.0598 9.61389 28.1052 9.61568C28.1016 9.57404 28.1052 9.50002 28.1161 9.39336L28.1188 9.30649L28.1025 9.20894C28.0879 9.13839 28.0634 9.06161 28.0289 8.97848C27.978 8.85549 27.9353 8.76244 27.9007 8.69922C27.8499 8.59619 27.7754 8.49685 27.6773 8.40097C27.6265 8.35396 27.5874 8.32056 27.5601 8.30066Z" fill="#FFD460"/>
</svg>
