<svg width="162" height="194" viewBox="0 0 162 194" fill="none" xmlns="http://www.w3.org/2000/svg">
<path d="M34.851 11.0115C50.7 46.6582 58.5726 105.392 62.337 146.734C46.573 114.534 24.8881 90.4274 15.8049 81.0995L35.5004 57.1442L9.46783 38.3437L34.851 11.0115ZM36.4778 0L0 39.2752L26.3731 58.318L7.29241 81.5275C7.29241 81.5275 60.0449 130.914 71.8332 193.997C71.8332 193.997 67.3405 57.1316 36.4778 0Z" fill="#FFD460"/>
<path d="M127.155 11.0115L152.538 38.3468L126.506 57.1442L146.198 81.0995C137.118 90.4274 115.433 114.537 99.6693 146.734C103.431 105.395 111.3 46.655 127.155 11.0115ZM125.525 0C94.6627 57.1284 90.1731 194 90.1731 194C101.958 130.917 154.711 81.5307 154.711 81.5307L135.63 58.3212L162 39.2784L125.525 0Z" fill="#FFD460"/>
<path d="M60.83 12.1067L66.7856 14.9264L61.0034 16.8933C60.9435 15.3544 60.8867 13.7211 60.83 12.1067ZM54.2817 2.04238C54.2817 7.92422 55.0383 25.5666 55.0383 25.5666L83.5333 15.88L54.2817 2.04238Z" fill="#FFD460"/>
<path d="M101.173 12.1066C101.117 13.721 101.06 15.3512 101 16.8901L95.2208 14.9232L101.173 12.1066ZM107.725 2.04231L78.4795 15.8799L106.968 25.5665C106.968 25.5665 107.725 7.92415 107.725 2.04231Z" fill="#FFD460"/>
<path fill-rule="evenodd" clip-rule="evenodd" d="M135.021 33.4999L135.118 33.7616C135.182 33.9366 135.219 34.1112 135.228 34.2854V34.3957L136.568 35.0305C137.268 35.4069 137.871 35.7107 138.378 35.9401C138.884 36.161 139.321 36.3171 139.69 36.4092C140.233 36.5652 140.79 36.5878 141.361 36.4781C141.637 36.4318 141.946 36.3402 142.287 36.2024C142.618 36.0554 142.931 35.8853 143.226 35.6917C143.981 35.1957 144.547 34.6351 144.924 34.0097C145.191 33.5779 145.311 33.1875 145.283 32.8378C145.265 32.4242 145.053 32.0887 144.648 31.8314C144.298 31.6111 143.819 31.4459 143.212 31.3354L142.369 31.211C142.351 31.211 142.052 31.1834 141.471 31.1286C140.514 31.0731 139.206 31.1195 137.549 31.2664C136.591 31.3676 135.859 31.4457 135.353 31.5008C134.451 31.5929 133.668 31.6569 133.005 31.6935C132.655 31.7123 132.282 31.7026 131.886 31.666C131.766 31.6478 131.656 31.6293 131.555 31.6111C131.49 31.6569 131.435 31.6844 131.389 31.6935C131.37 31.6935 131.357 31.6985 131.348 31.7076C131.348 31.8455 131.366 31.9651 131.403 32.0663C131.486 32.2776 131.661 32.4477 131.927 32.5765L132.342 32.7143C132.471 32.7419 132.609 32.7557 132.756 32.7557C132.83 32.7557 132.986 32.7466 133.226 32.7276C133.447 32.7 133.626 32.6909 133.764 32.7C134.004 32.7182 134.202 32.7645 134.358 32.8378L134.648 33.0033C134.703 33.0496 134.777 33.1276 134.869 33.2382L135.021 33.4999ZM140.518 28.8954C140.178 28.8673 139.796 28.7801 139.372 28.6332C138.737 28.3941 138.221 28.2245 137.825 28.1231C137.448 28.0591 137.139 28.0401 136.9 28.0682L136.679 28.1231L136.471 28.2196C136.315 28.3299 136.177 28.4446 136.057 28.5642C135.79 28.84 135.528 29.1987 135.27 29.6396C134.892 30.2002 134.62 30.5906 134.455 30.8115C135.302 30.7376 136.31 30.6369 137.479 30.5082C139.073 30.3612 140.426 30.324 141.54 30.3979C142.065 30.4436 142.374 30.4759 142.466 30.4944L143.377 30.6322C144.105 30.7701 144.671 30.9819 145.076 31.2667C145.334 31.4322 145.55 31.6572 145.725 31.942C145.882 32.1995 145.96 32.4984 145.96 32.8381C145.96 33.3438 145.799 33.8539 145.477 34.3687C145.026 35.0763 144.372 35.692 143.516 36.2159C142.825 36.6386 142.125 36.9052 141.416 37.0155C141.048 37.0613 140.711 37.0704 140.408 37.0431L139.538 36.8503C139.114 36.7125 138.663 36.5239 138.184 36.2848C137.687 36.0182 137.102 35.6694 136.43 35.2373L135.228 34.4101V34.4377C135.219 34.6489 135.178 34.9202 135.104 35.2508C135.021 35.5911 134.989 35.8345 135.007 35.9815C135.017 36.1651 135.099 36.3353 135.256 36.4916L135.504 36.6984C135.541 36.7166 135.629 36.7582 135.767 36.8228C135.942 36.8776 136.158 36.9008 136.416 36.8917C136.499 36.8917 136.734 36.8729 137.12 36.8363C137.756 36.7814 138.244 36.7905 138.584 36.8638C138.999 36.9835 139.399 37.1859 139.786 37.4707C140.007 37.6268 140.302 37.8843 140.67 38.2425C141.214 38.8127 141.6 39.3777 141.83 39.9383C142.033 40.3701 142.226 40.8667 142.411 41.4273C142.585 41.9787 142.696 42.3973 142.742 42.6821C142.751 42.8109 142.77 42.9896 142.797 43.2195L142.742 43.688C142.632 44.2858 142.572 44.6531 142.563 44.7909V44.9153H142.452C142.305 44.9244 141.927 44.9842 141.319 45.0945L140.85 45.1353C140.749 45.1353 140.569 45.1171 140.311 45.0805C140.007 45.0347 139.589 44.9244 139.054 44.7499C138.456 44.5566 137.954 44.3589 137.549 44.157C136.969 43.9089 136.403 43.5226 135.85 42.9987C135.436 42.5302 135.183 42.2313 135.091 42.1025C134.805 41.7077 134.607 41.3034 134.497 40.8898C134.432 40.5587 134.428 40.0762 134.483 39.4422C134.538 38.7896 134.529 38.3437 134.455 38.1044C134.4 37.9756 134.354 37.8885 134.317 37.8427L134.11 37.581C133.953 37.4432 133.783 37.3693 133.599 37.3602C133.442 37.3511 133.193 37.3877 132.853 37.4705L132.328 37.5529L132.991 38.532C133.424 39.2032 133.774 39.791 134.041 40.2967C134.289 40.7837 134.473 41.2386 134.593 41.6614C134.814 42.2404 134.87 42.8608 134.759 43.5226C134.685 43.8904 134.589 44.2351 134.469 44.5566C134.313 44.9611 134.138 45.3148 133.944 45.6181C133.438 46.4544 132.816 47.103 132.08 47.5623C131.564 47.8839 131.053 48.0399 130.546 48.0308C130.196 48.0217 129.897 47.9393 129.649 47.7832C129.382 47.6081 129.161 47.3878 128.986 47.1214C128.691 46.6803 128.484 46.115 128.364 45.4257L128.212 44.5155C128.203 44.3964 128.176 44.0884 128.129 43.5918C128.065 42.5991 128.102 41.253 128.24 39.5523C128.369 38.3853 128.47 37.3877 128.544 36.5605C128.323 36.7166 127.931 36.9832 127.37 37.3602C126.891 37.645 126.532 37.9067 126.292 38.146C126.145 38.293 126.03 38.4358 125.947 38.5737L125.85 38.7805L125.795 39.0005C125.758 39.2671 125.781 39.5707 125.864 39.9107C125.91 40.0944 126.08 40.6091 126.375 41.4548C126.523 41.9514 126.61 42.3375 126.637 42.6132L126.652 42.8476L126.596 43.3715L126.527 43.6058L126.444 43.7572C126.389 43.8584 126.352 43.9091 126.334 43.9091C126.325 43.8909 126.325 43.8261 126.334 43.7164L126.347 43.3433C126.347 43.2242 126.338 43.123 126.32 43.04L126.251 42.6678C126.186 42.4011 126.057 42.0565 125.864 41.6338C125.505 40.8157 125.289 40.2965 125.215 40.0759C125.104 39.6256 125.063 39.2305 125.09 38.8905L125.173 38.5458L125.325 38.2012C125.445 37.9894 125.592 37.7967 125.768 37.6216C126.026 37.3646 126.417 37.061 126.942 36.7119C127.623 36.2707 128.051 35.9763 128.226 35.8293C128.309 35.7468 128.41 35.6823 128.53 35.6366C128.558 35.6275 128.59 35.6184 128.627 35.609C128.636 35.4157 128.645 35.2321 128.655 35.0575C128.673 34.7636 128.691 34.5196 128.709 34.3268C128.571 34.428 128.401 34.5885 128.198 34.8093C128.069 34.9563 127.881 35.1816 127.632 35.4846C127.126 36.0642 126.67 36.4453 126.265 36.6289C125.97 36.7577 125.657 36.7899 125.326 36.7254L124.911 36.5741L124.593 36.3675C124.262 36.1194 123.99 35.7471 123.778 35.2505L123.309 34.0927L123.254 33.9962L122.977 33.6234C122.729 33.2743 122.457 32.9432 122.163 32.6308L121.099 31.6527L121.499 31.7625L121.734 31.8868C121.826 31.9235 121.932 31.988 122.052 32.0796C122.144 32.1259 122.273 32.2174 122.439 32.3553C122.825 32.6865 123.147 32.9989 123.405 33.2928L123.682 33.6234L123.723 33.6648L123.944 34.0508C124.045 34.2526 124.192 34.5656 124.386 34.9883C124.561 35.3743 124.763 35.641 124.994 35.7879C125.16 35.907 125.321 35.9807 125.477 36.0082C125.634 36.0358 125.799 36.0132 125.974 35.9393C126.232 35.829 126.587 35.5075 127.038 34.9742L127.632 34.2849C127.715 34.1934 127.793 34.1104 127.867 34.0367L127.756 34.0649C127.259 34.2118 126.845 34.2899 126.513 34.2992C126.357 34.2992 126.237 34.2901 126.154 34.2717L125.795 34.1752C125.547 34.1018 125.33 33.9824 125.146 33.817C124.787 33.5137 124.565 33.0813 124.483 32.5208C124.382 31.8777 124.437 31.0365 124.649 29.9983C124.63 29.9892 124.612 29.9796 124.594 29.9702C124.234 29.8048 123.862 29.612 123.475 29.3912C123.106 29.1617 122.844 29.0051 122.687 28.9227L121.72 28.4261C121.536 28.3527 121.403 28.2838 121.32 28.2193L121.251 28.1368L121.334 28.0955C121.435 28.0588 121.596 28.0401 121.817 28.0401L122.301 28.1231C122.485 28.1597 122.71 28.2287 122.977 28.3299C123.309 28.4586 123.935 28.7617 124.856 29.2401L125.022 28.6332C125.206 28.128 125.362 27.8799 125.491 27.889H125.519L125.505 27.8614C125.496 27.7511 125.749 27.5948 126.265 27.3924C126.513 27.3099 126.711 27.2501 126.858 27.2131C126.38 26.3126 126.08 25.6922 125.961 25.3519C125.905 25.2141 125.832 24.9891 125.739 24.6767C125.721 24.5755 125.698 24.415 125.67 24.1941C125.67 23.9733 125.689 23.8172 125.726 23.7256L125.767 23.6424L125.836 23.7113C125.901 23.7943 125.97 23.9272 126.044 24.1108C126.09 24.1754 126.159 24.3041 126.251 24.4969L126.555 25.0759C126.582 25.1404 126.734 25.4024 127.01 25.8623C127.24 26.2572 127.434 26.625 127.59 26.9653C127.609 26.9834 127.618 27.0019 127.618 27.0201C128.695 26.8183 129.543 26.7626 130.159 26.8547C130.73 26.9559 131.168 27.1811 131.472 27.53C131.647 27.7508 131.762 27.9711 131.817 28.1917L131.914 28.5364C131.932 28.7109 131.937 28.8353 131.928 28.9086C131.919 29.2398 131.845 29.6534 131.707 30.1494L131.679 30.2597C131.743 30.1767 131.826 30.0896 131.927 29.9981L132.618 29.4185C133.134 28.9867 133.451 28.6285 133.571 28.3436C133.645 28.1967 133.668 28.0307 133.64 27.847C133.603 27.6634 133.53 27.5073 133.419 27.3786C133.272 27.1486 133 26.9418 132.604 26.7582C132.181 26.5649 131.872 26.4179 131.678 26.3164L131.347 26.1378L130.919 25.7793C130.56 25.4669 130.247 25.1449 129.98 24.8142C129.842 24.6488 129.75 24.5203 129.704 24.4282L129.386 23.8767L129.29 23.4907L129.441 23.6424C129.579 23.8442 129.856 24.1481 130.27 24.5526C130.537 24.8096 130.869 25.0809 131.264 25.3657L131.638 25.6414L131.651 25.6555L131.928 25.7793C132.443 25.9721 132.77 26.1008 132.908 26.1653C133.387 26.3766 133.756 26.6479 134.013 26.9785C134.188 27.2175 134.303 27.466 134.359 27.7232C134.432 28.0266 134.4 28.3345 134.262 28.647C134.142 28.9045 133.972 29.1521 133.751 29.3912C133.631 29.529 133.419 29.7358 133.115 30.0116L132.452 30.563C132.286 30.71 132.144 30.857 132.024 31.0042C132.227 30.9766 132.54 30.9493 132.963 30.9218C133.138 30.9127 133.322 30.9036 133.516 30.8942C133.525 30.857 133.534 30.8253 133.543 30.7971C133.562 30.7605 133.622 30.6593 133.723 30.4938C133.898 30.2826 134.197 29.8552 134.621 29.2117C134.971 28.6789 135.275 28.2838 135.532 28.0263C135.726 27.8517 135.919 27.7042 136.113 27.5851L136.458 27.4332L136.803 27.3642C137.107 27.3276 137.508 27.3692 138.005 27.488C138.226 27.5619 138.746 27.7778 139.566 28.1366C139.961 28.3202 140.307 28.449 140.602 28.522L141.126 28.6191H141.485L141.637 28.605C141.748 28.5959 141.812 28.5959 141.83 28.605C141.83 28.6232 141.776 28.6599 141.665 28.7153L141.513 28.7978L141.292 28.8667C141.2 28.8948 141.089 28.9081 140.96 28.9081L140.753 28.9227L140.518 28.8954ZM133.709 33.431C133.626 33.431 133.479 33.4401 133.267 33.4585C133.046 33.4767 132.871 33.4861 132.742 33.4861C132.576 33.4952 132.379 33.477 132.148 33.4312C131.854 33.3391 131.674 33.2752 131.61 33.2385C131.435 33.174 131.255 33.0593 131.071 32.8938C130.887 32.7187 130.758 32.521 130.685 32.301C130.565 31.9514 130.56 31.5245 130.671 31.0188C130.717 30.798 130.818 30.4307 130.975 29.9159C131.104 29.4565 131.168 29.1118 131.168 28.8819L131.154 28.661L131.099 28.4266C131.053 28.2888 130.975 28.16 130.864 28.0406C130.689 27.8112 130.404 27.6684 130.008 27.6135C129.455 27.5305 128.65 27.5994 127.59 27.8203C127.222 27.9027 126.826 27.9717 126.403 28.0271C126.025 28.0729 125.758 28.0547 125.602 27.9717C125.676 28.1186 125.689 28.3902 125.643 28.7854C125.634 28.9141 125.569 29.3093 125.45 29.9708C125.21 31.0097 125.141 31.8138 125.242 32.3834C125.298 32.7788 125.44 33.0637 125.671 33.2388C125.919 33.4591 126.2 33.5603 126.513 33.5421C126.762 33.5421 127.112 33.4731 127.563 33.3353C127.802 33.2707 128.171 33.1698 128.668 33.032C129.193 32.9399 129.621 32.949 129.952 33.0595C130.192 33.142 130.39 33.2754 130.546 33.4591C130.675 33.5969 130.79 33.7762 130.891 33.997L131.071 34.5344C131.108 34.7181 131.126 34.9158 131.126 35.1273C131.117 35.3754 131.098 35.6969 131.071 36.0923C131.071 36.3405 131.149 36.5241 131.306 36.6438C131.49 36.7817 131.706 36.8597 131.955 36.8782C132.103 36.8873 132.365 36.855 132.743 36.7817C133.148 36.6987 133.461 36.6664 133.681 36.6852C134.032 36.7127 134.34 36.8688 134.607 37.1536C134.69 37.2275 134.786 37.3464 134.897 37.5124C134.989 37.6502 135.054 37.7925 135.091 37.9395C135.164 38.197 135.192 38.4819 135.173 38.7943C135.164 38.9694 135.141 39.217 135.104 39.539C135.04 40.0905 135.035 40.5085 135.091 40.7933C135.164 41.0782 135.289 41.3636 135.464 41.6487V41.6622C135.482 41.6255 135.505 41.5888 135.533 41.5519C137.125 39.9796 138.299 38.904 139.054 38.3252L139.579 38.0219L139.538 37.9944C139.179 37.7095 138.801 37.5253 138.405 37.4429C138.157 37.3966 137.737 37.4057 137.148 37.4705L136.402 37.5253C136.034 37.5253 135.749 37.4978 135.546 37.4429C135.362 37.369 135.219 37.3001 135.118 37.2361L134.759 36.9463C134.482 36.6797 134.335 36.3672 134.317 36.0088C134.298 35.8252 134.335 35.5127 134.427 35.0713C134.491 34.7407 134.519 34.4832 134.51 34.2995C134.491 34.042 134.413 33.8261 134.275 33.6515C134.156 33.5046 133.967 33.431 133.709 33.431ZM134.289 42.5443L134.137 41.7446C134.027 41.2943 133.87 40.8576 133.668 40.4349C133.548 40.1682 133.249 39.571 132.77 38.6426L132.259 37.5672H131.886C131.849 37.5672 131.674 37.535 131.361 37.4707L131.099 37.3604L130.85 37.2085C130.657 37.0524 130.524 36.8779 130.45 36.6852C130.413 36.5473 130.386 36.4461 130.367 36.3813L130.339 36.0921C130.367 35.623 130.381 35.2924 130.381 35.0994C130.381 34.9616 130.367 34.8237 130.339 34.6858L130.201 34.2722C130.072 34.0147 129.902 33.8446 129.69 33.7616C129.598 33.734 129.488 33.7207 129.359 33.7207C129.377 33.8032 129.391 33.8994 129.4 34.01C129.446 34.4881 129.455 34.8513 129.428 35.0994C129.372 36.1933 129.234 37.7098 129.013 39.649C128.857 41.2662 128.811 42.576 128.875 43.5783C128.893 43.9731 128.916 44.272 128.944 44.4744L129.082 45.3016C129.193 45.917 129.363 46.3996 129.593 46.7492C129.851 47.1537 130.187 47.3555 130.602 47.3555C130.961 47.3646 131.348 47.2408 131.762 46.9833C132.388 46.6064 132.954 46.0364 133.46 45.2735C133.838 44.6762 134.096 44.0514 134.234 43.3988C134.28 43.0585 134.298 42.7737 134.289 42.5443ZM139.676 38.0909L139.648 38.0768L139.331 38.601C138.75 39.3642 137.991 40.2231 137.052 41.1791C136.453 41.786 136.076 42.1491 135.919 42.2685L136.264 42.6408C136.679 43.0635 137.13 43.4125 137.618 43.6883C137.728 43.5413 138.023 43.2339 138.502 42.7646C139.339 41.9374 140.085 41.2943 140.739 40.8344L141.319 40.5311L141.016 41.1102C140.546 41.7628 139.657 42.742 138.35 44.0467C138.552 44.1388 138.842 44.2585 139.22 44.4055C139.606 44.5615 139.998 44.6856 140.394 44.7777C140.504 44.7959 140.666 44.8235 140.877 44.8601L141.306 44.8466C141.83 44.7912 142.208 44.7686 142.438 44.7777C142.42 44.5659 142.438 44.1896 142.493 43.6472L142.507 43.2055L142.424 42.7094C142.351 42.3507 142.226 41.9602 142.051 41.5375C141.793 40.9122 141.577 40.439 141.402 40.1175C141.144 39.5936 140.767 39.0885 140.269 38.601C140.012 38.3619 139.814 38.1921 139.676 38.0909Z" fill="#FFD460"/>
</svg>
